<svg width="24" height="23" viewBox="0 0 24 23" fill="none" xmlns="http://www.w3.org/2000/svg">
<path d="M21.1482 0.650024H2.7778C2.16879 0.650024 1.58472 0.892346 1.15408 1.32368C0.723437 1.75501 0.481506 2.34003 0.481506 2.95002V14.45C0.481506 15.715 1.51484 16.75 2.7778 16.75H11.676V20.775H5.93521C5.70683 20.775 5.4878 20.8659 5.32631 21.0276C5.16482 21.1894 5.0741 21.4088 5.0741 21.6375C5.0741 21.8663 5.16482 22.0857 5.32631 22.2474C5.4878 22.4092 5.70683 22.5 5.93521 22.5H19.1389C19.3673 22.5 19.5863 22.4092 19.7478 22.2474C19.9093 22.0857 20 21.8663 20 21.6375C20 21.4088 19.9093 21.1894 19.7478 21.0276C19.5863 20.8659 19.3673 20.775 19.1389 20.775H13.3982V16.75H21.1482C21.7572 16.75 22.3413 16.5077 22.7719 16.0764C23.2025 15.645 23.4445 15.06 23.4445 14.45V2.95002C23.4445 2.34003 23.2025 1.75501 22.7719 1.32368C22.3413 0.892346 21.7572 0.650024 21.1482 0.650024Z" fill="#428D26"/>
<path d="M5.59075 10.425C5.47233 10.5969 5.42018 10.806 5.44399 11.0134C5.4678 11.2209 5.56595 11.4127 5.72022 11.5532C5.87449 11.6936 6.07441 11.7733 6.28286 11.7773C6.49132 11.7813 6.69415 11.7095 6.85372 11.575L5.59075 10.425ZM10.4015 6.40005L11.033 5.82505C10.9524 5.73796 10.8547 5.66848 10.746 5.62097C10.6373 5.57346 10.5201 5.54893 10.4015 5.54893C10.2829 5.54893 10.1656 5.57346 10.057 5.62097C9.94832 5.66848 9.85062 5.73796 9.77001 5.82505L10.4015 6.40005ZM13.5245 9.85005L12.893 10.425C12.9736 10.5121 13.0713 10.5816 13.1799 10.6291C13.2886 10.6766 13.4059 10.7012 13.5245 10.7012C13.643 10.7012 13.7603 10.6766 13.869 10.6291C13.9776 10.5816 14.0753 10.5121 14.1559 10.425L13.5245 9.85005ZM18.3467 5.82505C18.4758 5.65277 18.5359 5.43832 18.5151 5.22389C18.4944 5.00947 18.3942 4.81059 18.2344 4.6664C18.0746 4.5222 17.8667 4.44313 17.6517 4.44473C17.4366 4.44633 17.2299 4.52849 17.0722 4.67505L18.3352 5.82505H18.3467ZM6.8652 11.575L11.033 6.97505L9.77001 5.82505L5.59075 10.425L6.85372 11.575H6.8652ZM9.75853 6.97505L12.893 10.425L14.1559 9.27505L11.033 5.82505L9.77001 6.97505H9.75853ZM14.1674 10.425L18.3352 5.82505L17.0722 4.67505L12.893 9.27505L14.1559 10.425H14.1674Z" fill="#101010"/>
</svg>