<svg width="18" height="17" viewBox="0 0 18 17" fill="none" xmlns="http://www.w3.org/2000/svg">
<g clip-path="url(#clip0_111_241)">
<path fill-rule="evenodd" clip-rule="evenodd" d="M8.61709 0C5.13235 0 2.7388 0 1.50682 1.23198C0.274841 2.46395 0.274841 4.99831 0.274841 8.34225C4.00597 8.23665 5.73074 8.13105 7.10352 6.79347C8.40589 5.4559 8.51149 3.73113 8.61709 0Z" fill="#5B5B5B"/>
<path fill-rule="evenodd" clip-rule="evenodd" d="M1.50682 15.6637C0.274841 14.4317 0.274841 11.8974 0.274841 8.55344C4.00597 8.65903 5.73074 8.76463 7.10352 10.1022C8.44109 11.475 8.54669 13.1645 8.65229 16.9309C5.13235 16.8957 2.7388 16.8957 1.50682 15.6637Z" fill="#5B5B5B"/>
<path fill-rule="evenodd" clip-rule="evenodd" d="M8.82831 16.8957C8.93391 13.1646 9.0395 11.4398 10.3771 10.067C11.7499 8.72945 13.4394 8.62385 17.2058 8.51825C17.2058 11.8974 17.2058 14.3965 15.9738 15.6637C14.7066 16.8957 12.313 16.8957 8.82831 16.8957Z" fill="#5B5B5B"/>
<path fill-rule="evenodd" clip-rule="evenodd" d="M8.82831 0C8.93391 3.73113 9.0395 5.4559 10.3771 6.82867C11.7499 8.16625 13.4394 8.27185 17.2058 8.37745C17.2058 4.99831 17.2058 2.49915 15.9738 1.23198C14.7066 0 12.313 0 8.82831 0Z" fill="#5B5B5B"/>
</g>
<defs>
<clipPath id="clip0_111_241">
<rect width="16.8957" height="16.8957" fill="white" transform="translate(0.274841)"/>
</clipPath>
</defs>
</svg>
