<svg width="18" height="17" viewBox="0 0 18 17" fill="none" xmlns="http://www.w3.org/2000/svg">
<path fill-rule="evenodd" clip-rule="evenodd" d="M6.61032 0H11.797C16.5306 0 17.6515 1.12086 17.6515 5.85453V11.0412C17.6515 15.7748 16.5306 16.8957 11.797 16.8957H6.61032C1.87666 16.8957 0.755798 15.7748 0.755798 11.0412V5.85453C0.755798 1.12086 1.87666 0 6.61032 0ZM14.5871 5.81871C14.6706 5.55632 14.5871 5.36556 14.2174 5.36556H12.9893C12.6794 5.36556 12.5363 5.53249 12.4529 5.71142C12.4529 5.71142 11.8208 7.23761 10.9385 8.22736C10.6523 8.5134 10.5212 8.60886 10.3662 8.60886C10.2828 8.60886 10.1755 8.5134 10.1755 8.25118V5.80671C10.1755 5.49684 10.08 5.35374 9.81763 5.35374H7.88612C7.69536 5.35374 7.57608 5.49684 7.57608 5.63978C7.57608 5.93799 8.01723 6.00946 8.06487 6.84411V8.65651C8.06487 9.05001 7.9934 9.12148 7.83847 9.12148C7.42115 9.12148 6.40758 7.58346 5.7995 5.8307C5.68022 5.48485 5.56093 5.35374 5.2509 5.35374H4.01092C3.65324 5.35374 3.5936 5.52067 3.5936 5.69942C3.5936 6.02145 4.01092 7.64293 5.53711 9.78919C6.55068 11.2559 7.9934 12.0427 9.29302 12.0427C10.08 12.0427 10.1755 11.864 10.1755 11.5659V10.4569C10.1755 10.0992 10.247 10.0396 10.4973 10.0396C10.6761 10.0396 10.9981 10.135 11.7255 10.8386C12.5601 11.6732 12.7032 12.0547 13.1682 12.0547H14.3964C14.754 12.0547 14.921 11.8758 14.8257 11.5301C14.7184 11.1843 14.3129 10.6835 13.7883 10.0874C13.5021 9.75354 13.0729 9.38387 12.9416 9.20494C12.7629 8.96654 12.8105 8.87108 12.9416 8.65651C12.9298 8.65651 14.4322 6.53407 14.5871 5.81871Z" fill="#5B5B5B"/>
</svg>
