<svg width="19" height="15" viewBox="0 0 19 15" fill="none" xmlns="http://www.w3.org/2000/svg">
<path d="M18.3679 2.80493C18.1535 1.97071 17.524 1.316 16.7244 1.09425C15.2749 0.689453 9.46316 0.689453 9.46316 0.689453C9.46316 0.689453 3.65144 0.689453 2.20191 1.09425C1.40229 1.316 0.772801 1.97071 0.558434 2.80493C0.170532 4.31499 0.170532 7.46181 0.170532 7.46181C0.170532 7.46181 0.170532 10.6086 0.558434 12.1187C0.772801 12.9494 1.40229 13.5795 2.20191 13.8012C3.65144 14.206 9.46316 14.206 9.46316 14.206C9.46316 14.206 15.2749 14.206 16.7244 13.8012C17.524 13.5795 18.1535 12.9494 18.3679 12.1187C18.7558 10.6086 18.7558 7.46181 18.7558 7.46181C18.7558 7.46181 18.7558 4.31147 18.3679 2.80493ZM7.56108 10.32V4.60362L12.4167 7.46181L7.56108 10.32Z" fill="#5B5B5B"/>
</svg>
