<svg width="38" height="33" viewBox="0 0 38 33" fill="none" xmlns="http://www.w3.org/2000/svg">
<path fill-rule="evenodd" clip-rule="evenodd" d="M14.6129 16.7888L14.6129 3.41977C14.6129 1.53096 16.144 -0.000223227 18.0328 -0.000223309L34.2001 -0.000224016C36.0889 -0.000224099 37.62 1.53096 37.62 3.41976L37.6201 16.7888C37.6201 18.6776 36.0889 20.2088 34.2001 20.2088L18.0328 20.2088C16.144 20.2088 14.6129 18.6776 14.6129 16.7888ZM17.1001 16.7888C17.1001 17.3039 17.5177 17.7215 18.0328 17.7215L34.2001 17.7215C34.7152 17.7215 35.1328 17.3039 35.1328 16.7888L35.1328 3.41976C35.1328 2.90464 34.7152 2.48704 34.2001 2.48704L18.0328 2.48704C17.5177 2.48704 17.1001 2.90464 17.1001 3.41977L17.1001 16.7888Z" fill="white"/>
<path fill-rule="evenodd" clip-rule="evenodd" d="M-1.49492e-07 28.9145L-7.33872e-07 15.5455C-8.16435e-07 13.6567 1.53118 12.1255 3.41999 12.1255L19.5872 12.1255C21.476 12.1255 23.0072 13.6567 23.0072 15.5455L23.0072 28.9145C23.0072 30.8034 21.476 32.3345 19.5872 32.3345L3.41999 32.3345C1.53118 32.3345 -6.69301e-08 30.8034 -1.49492e-07 28.9145ZM2.48726 28.9145C2.48726 29.4297 2.90486 29.8473 3.41999 29.8473L19.5872 29.8473C20.1023 29.8473 20.5199 29.4297 20.5199 28.9145L20.5199 15.5455C20.5199 15.0304 20.1023 14.6128 19.5872 14.6128L3.41999 14.6128C2.90486 14.6128 2.48726 15.0304 2.48726 15.5455L2.48726 28.9145Z" fill="white"/>
<path fill-rule="evenodd" clip-rule="evenodd" d="M24.8727 28.9145L24.8727 25.4946C24.8727 23.6058 26.4039 22.0746 28.2927 22.0746L34.2 22.0746C36.0888 22.0746 37.62 23.6057 37.62 25.4946L37.62 28.9145C37.62 30.8034 36.0888 32.3345 34.2 32.3345L28.2927 32.3345C26.4039 32.3345 24.8727 30.8034 24.8727 28.9145ZM27.36 28.9145C27.36 29.4297 27.7776 29.8473 28.2927 29.8473L34.2 29.8473C34.7151 29.8473 35.1327 29.4297 35.1327 28.9145L35.1327 25.4946C35.1327 24.9794 34.7151 24.5618 34.2 24.5618L28.2927 24.5618C27.7776 24.5618 27.36 24.9794 27.36 25.4946L27.36 28.9145Z" fill="#63D23A"/>
</svg>
